<svg width="9" height="13" viewBox="0 0 9 13" fill="none" xmlns="http://www.w3.org/2000/svg">
<path d="M8.41211 9.13071C8.40443 11.0427 7.53648 12.3316 6.37282 12.9929C6.34978 13.0099 6.31905 13.0056 6.29985 12.9887C6.28065 12.9675 6.27297 12.9378 6.28449 12.9081C6.35362 12.6665 6.38818 12.4163 6.38818 12.1619C6.36514 10.3856 4.73678 9.77089 4.81743 8.07083C4.81743 8.04539 4.80975 8.01994 4.79055 8.00722C4.77135 7.99451 4.74446 7.99451 4.72526 8.00722C4.29129 8.24888 3.92644 8.62192 3.67681 9.08403C3.42718 9.54614 3.30045 10.0761 3.31581 10.6146C3.31965 10.6442 3.30813 10.6781 3.28125 10.6908C3.25436 10.7036 3.22364 10.6909 3.20828 10.6697C3.0969 10.5425 3.02009 10.3856 2.97785 10.2118C2.97401 10.1863 2.95481 10.1651 2.92792 10.1609C2.90488 10.1567 2.878 10.1694 2.86647 10.1906C2.62837 10.5467 2.34033 11.0893 2.34033 12.1662C2.34033 12.4206 2.3749 12.6707 2.44402 12.9124C2.45555 12.9378 2.44786 12.9717 2.42866 12.9929C2.40946 13.0141 2.37874 13.0141 2.35569 12.9972C1.19203 12.3358 0.324087 11.0469 0.316406 9.13491C0.358651 5.54401 3.69217 4.33153 3.45407 0.842384C3.45023 0.816947 3.45791 0.791499 3.47711 0.77878C3.49631 0.761822 3.51935 0.761818 3.5424 0.774537C5.40886 1.71572 6.61093 3.95847 6.45347 6.21815C6.44963 6.24783 6.46115 6.27747 6.48803 6.29019C6.51108 6.30291 6.5418 6.29865 6.561 6.27321C6.87592 5.96373 7.09099 5.54829 7.17164 5.09466C7.17164 5.06498 7.19084 5.04378 7.21772 5.0353C7.24461 5.02682 7.26765 5.03952 7.28301 5.06495C7.76691 5.7772 8.41595 6.86251 8.41595 9.13915L8.41211 9.13071Z" fill="#002542"/>
</svg>
