<svg width="138" height="29" viewBox="0 0 138 29" fill="none" xmlns="http://www.w3.org/2000/svg">
<path fill-rule="evenodd" clip-rule="evenodd" d="M3.55777 19.9246C5.20776 20.5974 7.41468 21.0712 10.3419 21.0712C13.2691 21.0712 15.323 20.6553 16.9508 20.0464C15.2696 22.5459 13.0508 25.3573 10.2944 28.482C7.49339 25.3083 5.24786 22.4568 3.55777 19.9261V19.9246ZM0.596403 6.33115C2.23897 2.60196 5.9637 0 10.2944 0C14.625 0 18.3676 2.61533 20.0042 6.35788C19.4057 5.92719 18.6349 5.69105 17.674 5.69105H3.00975C1.94937 5.69105 1.16967 5.94204 0.596403 6.33115ZM0.0157135 14.3806V10.6128C0.0157135 9.27618 -0.397155 6.92075 3.00975 6.92075H17.6755C19.5705 6.92075 20.5938 7.76282 20.5938 10.6128V14.3806C20.5938 16.341 18.5859 18.7959 10.3434 18.5331C2.10085 18.2717 0.0157135 15.9177 0.0157135 14.3806ZM10.9864 13.3202L13.1146 11.7341C12.681 12.4885 12.3453 13.1034 12.1107 13.5757C11.9102 13.9781 11.778 14.2841 11.7142 14.5039C11.6726 14.645 11.6548 14.7608 11.6666 14.8722C11.6919 15.1009 11.8642 15.2851 12.1151 15.2851C12.5191 15.2851 13.5245 14.4786 15.473 12.643L14.8879 14.244C14.7572 14.6004 15.1686 14.9093 15.4745 14.6865L17.3547 13.3232C17.527 13.1984 17.5641 12.9578 17.4394 12.7871C17.3146 12.6148 17.074 12.5776 16.9018 12.7024L16.0389 13.3276L16.7562 11.3628C16.8958 10.9796 16.4221 10.6722 16.128 10.9544C14.8612 12.1737 13.8736 13.0856 13.1666 13.6915C13.0047 13.8311 12.8577 13.9529 12.7255 14.0583C12.7478 14.0138 12.7701 13.9663 12.7953 13.9172C13.1726 13.1598 13.8216 12.0133 14.7394 10.4836C14.9562 10.1227 14.5166 9.72618 14.1795 9.97865L10.5231 12.7054C10.3523 12.8316 10.3181 13.0722 10.4444 13.243C10.5721 13.4123 10.8127 13.4479 10.982 13.3217L10.9864 13.3202ZM1.50679 12.2272C1.47709 12.9489 1.35531 14.0984 1.80531 14.8648C2.35481 15.8019 4.11321 16.24 4.88549 16.3796C4.11321 16.0202 2.79589 15.3623 2.24194 14.6108C1.68947 13.8593 1.69689 12.9474 1.50679 12.2272Z" fill="white"/>
<mask id="mask0_12_119" style="mask-type:luminance" maskUnits="userSpaceOnUse" x="0" y="0" width="21" height="29">
<path d="M3.55777 19.9246C5.20776 20.5974 7.41468 21.0712 10.3419 21.0712C13.2691 21.0712 15.323 20.6553 16.9508 20.0464C15.2696 22.5459 13.0508 25.3573 10.2944 28.482C7.49339 25.3083 5.24786 22.4568 3.55777 19.9261V19.9246ZM0.596403 6.33115C2.23897 2.60196 5.9637 0 10.2944 0C14.625 0 18.3676 2.61533 20.0042 6.35788C19.4057 5.92719 18.6349 5.69105 17.674 5.69105H3.00975C1.94937 5.69105 1.16967 5.94204 0.596403 6.33115ZM0.0157135 14.3806V10.6128C0.0157135 9.27618 -0.397155 6.92075 3.00975 6.92075H17.6755C19.5705 6.92075 20.5938 7.76282 20.5938 10.6128V14.3806C20.5938 16.341 18.5859 18.7959 10.3434 18.5331C2.10085 18.2717 0.0157135 15.9177 0.0157135 14.3806ZM10.9864 13.3202L13.1146 11.7341C12.681 12.4885 12.3453 13.1034 12.1107 13.5757C11.9102 13.9781 11.778 14.2841 11.7142 14.5039C11.6726 14.645 11.6548 14.7608 11.6666 14.8722C11.6919 15.1009 11.8642 15.2851 12.1151 15.2851C12.5191 15.2851 13.5245 14.4786 15.473 12.643L14.8879 14.244C14.7572 14.6004 15.1686 14.9093 15.4745 14.6865L17.3547 13.3232C17.527 13.1984 17.5641 12.9578 17.4394 12.7871C17.3146 12.6148 17.074 12.5776 16.9018 12.7024L16.0389 13.3276L16.7562 11.3628C16.8958 10.9796 16.4221 10.6722 16.128 10.9544C14.8612 12.1737 13.8736 13.0856 13.1666 13.6915C13.0047 13.8311 12.8577 13.9529 12.7255 14.0583C12.7478 14.0138 12.7701 13.9663 12.7953 13.9172C13.1726 13.1598 13.8216 12.0133 14.7394 10.4836C14.9562 10.1227 14.5166 9.72618 14.1795 9.97865L10.5231 12.7054C10.3523 12.8316 10.3181 13.0722 10.4444 13.243C10.5721 13.4123 10.8127 13.4479 10.982 13.3217L10.9864 13.3202ZM1.50679 12.2272C1.47709 12.9489 1.35531 14.0984 1.80531 14.8648C2.35481 15.8019 4.11321 16.24 4.88549 16.3796C4.11321 16.0202 2.79589 15.3623 2.24194 14.6108C1.68947 13.8593 1.69689 12.9474 1.50679 12.2272Z" fill="white"/>
</mask>
<g mask="url(#mask0_12_119)">
<path d="M21.6913 -1.09375H-1.09375V29.5774H21.6913V-1.09375Z" fill="white"/>
</g>
<path d="M32.25 7.25297H34.0173V16.6272C34.0173 18.6336 34.598 19.5841 36.4173 19.5841C38.6331 19.5841 39.1084 18.6069 39.1084 16.6272V7.25297H40.8757V17.4722C40.8757 19.2945 39.5836 21.2474 36.5495 21.2474C33.5153 21.2474 32.25 19.3732 32.25 17.3653V7.25297ZM48.3148 13.5366H50.636C52.3499 13.5366 53.4845 12.5594 53.4845 11.0015C53.4845 9.75989 52.7464 8.83613 51.1632 8.83613H48.3148V13.5366ZM46.5474 21.0098V7.25297H51.2167C53.5113 7.25297 55.332 8.33564 55.332 11.0029C55.332 12.693 54.1974 14.3564 52.5355 14.8584L55.9112 20.4291L54.3815 21.3529L50.8736 15.1212H48.3148V21.0098H46.5474ZM63.0072 19.4252H65.0642C66.6206 19.4252 68.0716 19.0821 68.0716 17.2079C68.0716 15.8341 67.1745 14.7262 65.4859 14.7262H63.0057V19.4267L63.0072 19.4252ZM63.0072 13.1415H64.9854C66.5151 13.1415 67.28 12.1643 67.28 10.9242C67.28 9.28761 66.1186 8.83761 64.88 8.83761H63.0072V13.1415ZM65.4072 21.0098H59.8157V19.4252H61.2399V8.83761H59.8157V7.25297H64.1419C67.6245 7.25297 69.1275 8.57326 69.1275 10.9227C69.1275 12.1109 68.627 13.1668 67.5711 13.7475C69.074 14.2227 69.9191 15.5163 69.9191 17.0742C69.9191 19.5559 68.2839 21.0083 65.4087 21.0083L65.4072 21.0098ZM80.9448 17.2598H76.0646L74.7725 21.3529L73.0319 20.7187L77.3581 7.25297H79.6259L83.9522 20.7187L82.2116 21.3529L80.9448 17.2598ZM80.4443 15.6752L78.4928 9.31137L76.5413 15.6752H80.4457H80.4443ZM87.8833 21.0083V7.25297H90.0724L95.4011 18.8445L95.4546 18.791L95.2957 15.2267V7.25297H97.063V21.0098H94.8739L89.5452 9.4183L89.4917 9.47177L89.6506 13.0628V21.0113H87.8833V21.0083ZM108.907 17.2584H104.027L102.735 21.3514L100.994 20.7172L105.32 7.25148H107.588L111.914 20.7172L110.174 21.3514L108.907 17.2584ZM108.406 15.6737L106.455 9.30989L104.504 15.6737H108.408H108.406ZM116.135 7.25H117.902V16.6242C117.902 18.6306 118.483 19.5811 120.302 19.5811C122.518 19.5811 122.994 18.6039 122.994 16.6242V7.25H124.761V17.4692C124.761 19.2915 123.469 21.2445 120.435 21.2445C117.4 21.2445 116.135 19.3702 116.135 17.3623V7.25297V7.25ZM132.516 21.0068V8.83464H128.717V7.25H138.002V8.83464H134.284V21.0068H132.516Z" fill="white"/>
<mask id="mask1_12_119" style="mask-type:luminance" maskUnits="userSpaceOnUse" x="32" y="7" width="107" height="15">
<path d="M32.25 7.25297H34.0173V16.6272C34.0173 18.6336 34.598 19.5841 36.4173 19.5841C38.6331 19.5841 39.1084 18.6069 39.1084 16.6272V7.25297H40.8757V17.4722C40.8757 19.2945 39.5836 21.2474 36.5495 21.2474C33.5153 21.2474 32.25 19.3732 32.25 17.3653V7.25297ZM48.3148 13.5366H50.636C52.3499 13.5366 53.4845 12.5594 53.4845 11.0015C53.4845 9.75989 52.7464 8.83613 51.1632 8.83613H48.3148V13.5366ZM46.5474 21.0098V7.25297H51.2167C53.5113 7.25297 55.332 8.33564 55.332 11.0029C55.332 12.693 54.1974 14.3564 52.5355 14.8584L55.9112 20.4291L54.3815 21.3529L50.8736 15.1212H48.3148V21.0098H46.5474ZM63.0072 19.4252H65.0642C66.6206 19.4252 68.0716 19.0821 68.0716 17.2079C68.0716 15.8341 67.1745 14.7262 65.4859 14.7262H63.0057V19.4267L63.0072 19.4252ZM63.0072 13.1415H64.9854C66.5151 13.1415 67.28 12.1643 67.28 10.9242C67.28 9.28761 66.1186 8.83761 64.88 8.83761H63.0072V13.1415ZM65.4072 21.0098H59.8157V19.4252H61.2399V8.83761H59.8157V7.25297H64.1419C67.6245 7.25297 69.1275 8.57326 69.1275 10.9227C69.1275 12.1109 68.627 13.1668 67.5711 13.7475C69.074 14.2227 69.9191 15.5163 69.9191 17.0742C69.9191 19.5559 68.2839 21.0083 65.4087 21.0083L65.4072 21.0098ZM80.9448 17.2598H76.0646L74.7725 21.3529L73.0319 20.7187L77.3581 7.25297H79.6259L83.9522 20.7187L82.2116 21.3529L80.9448 17.2598ZM80.4443 15.6752L78.4928 9.31137L76.5413 15.6752H80.4457H80.4443ZM87.8833 21.0083V7.25297H90.0724L95.4011 18.8445L95.4546 18.791L95.2957 15.2267V7.25297H97.063V21.0098H94.8739L89.5452 9.4183L89.4917 9.47177L89.6506 13.0628V21.0113H87.8833V21.0083ZM108.907 17.2584H104.027L102.735 21.3514L100.994 20.7172L105.32 7.25148H107.588L111.914 20.7172L110.174 21.3514L108.907 17.2584ZM108.406 15.6737L106.455 9.30989L104.504 15.6737H108.408H108.406ZM116.135 7.25H117.902V16.6242C117.902 18.6306 118.483 19.5811 120.302 19.5811C122.518 19.5811 122.994 18.6039 122.994 16.6242V7.25H124.761V17.4692C124.761 19.2915 123.469 21.2445 120.435 21.2445C117.4 21.2445 116.135 19.3702 116.135 17.3623V7.25297V7.25ZM132.516 21.0068V8.83464H128.717V7.25H138.002V8.83464H134.284V21.0068H132.516Z" fill="white"/>
</mask>
<g mask="url(#mask1_12_119)">
<path d="M142.407 2.84375H27.8438V25.7565H142.407V2.84375Z" fill="white"/>
</g>
</svg>
