<svg width="36" height="36" viewBox="0 0 36 36" fill="none" xmlns="http://www.w3.org/2000/svg">
<circle cx="18.4439" cy="18.4478" r="17.5533" fill="#D9D9D9"/>
<path d="M18.0228 16.8137C20.3415 16.8137 22.2212 14.934 22.2212 12.6153C22.2212 10.2967 20.3415 8.41699 18.0228 8.41699C15.7041 8.41699 13.8245 10.2967 13.8245 12.6153C13.8245 14.934 15.7041 16.8137 18.0228 16.8137Z" fill="black"/>
<path d="M19.9627 18.1047H16.0873C14.7169 18.1047 13.4026 18.6491 12.4335 19.6182C11.4645 20.5872 10.9201 21.9015 10.9201 23.2719V27.1473C10.9201 27.3186 10.9882 27.4829 11.1093 27.6041C11.2304 27.7252 11.3947 27.7932 11.566 27.7932H24.484C24.6553 27.7932 24.8196 27.7252 24.9407 27.6041C25.0619 27.4829 25.1299 27.3186 25.1299 27.1473V23.2719C25.1299 21.9015 24.5855 20.5872 23.6165 19.6182C22.6474 18.6491 21.3331 18.1047 19.9627 18.1047Z" fill="black"/>
</svg>
